<svg xmlns="http://www.w3.org/2000/svg" xmlns:xlink="http://www.w3.org/1999/xlink" width="1080" zoomAndPan="magnify" viewBox="0 0 810 809.999993" height="1080" preserveAspectRatio="xMidYMid meet" version="1.2"><defs><clipPath id="7800189ed5"><path d="M 67.21875 50.121094 L 760.96875 50.121094 L 760.96875 759.621094 L 67.21875 759.621094 Z M 67.21875 50.121094 "/></clipPath><clipPath id="dd77b88eb4"><path d="M 147.308594 133.0625 L 517.058594 133.0625 L 517.058594 486.3125 L 147.308594 486.3125 Z M 147.308594 133.0625 "/></clipPath></defs><g id="bc62ae3d0f"><rect x="0" width="810" y="0" height="809.999993" style="fill:#ffffff;fill-opacity:1;stroke:none;"/><rect x="0" width="810" y="0" height="809.999993" style="fill:#411599;fill-opacity:1;stroke:none;"/><g clip-rule="nonzero" clip-path="url(#7800189ed5)"><path style=" stroke:none;fill-rule:nonzero;fill:#ffbac2;fill-opacity:1;" d="M 342.066406 50.121094 C 190.515625 50.121094 67.316406 173.320312 67.316406 324.871094 C 67.316406 476.417969 190.515625 599.621094 342.066406 599.621094 C 402.0625 599.621094 457.445312 580.082031 502.671875 547.347656 L 715.171875 759.847656 L 760.882812 714.140625 L 550.335938 503.597656 C 591.660156 455.503906 616.816406 393.132812 616.816406 324.871094 C 616.816406 173.320312 493.613281 50.121094 342.066406 50.121094 Z M 342.066406 82.445312 C 476.144531 82.445312 584.492188 190.789062 584.492188 324.871094 C 584.492188 458.949219 476.144531 567.296875 342.066406 567.296875 C 207.984375 567.296875 99.640625 458.949219 99.640625 324.871094 C 99.640625 190.789062 207.984375 82.445312 342.066406 82.445312 Z M 342.066406 82.445312 "/></g><g clip-rule="nonzero" clip-path="url(#dd77b88eb4)"><path style=" stroke:none;fill-rule:nonzero;fill:#411599;fill-opacity:1;" d="M 517 282.566406 C 516.539062 263.296875 512.445312 247.980469 504.101562 234.363281 C 493.914062 217.726562 480.390625 209.289062 463.902344 209.289062 C 459.1875 209.289062 454.371094 210.039062 449.316406 211.515625 C 447.296875 189.457031 439.53125 170.398438 425.675781 153.492188 C 414.796875 140.265625 400.40625 132.976562 385.148438 132.976562 C 369.90625 132.976562 355.855469 140.222656 345.589844 153.359375 C 341.894531 158.085938 338.625 162.875 335.6875 167.71875 C 332.695312 162.6875 329.378906 157.964844 325.71875 153.679688 C 311.183594 136.660156 295.773438 133.089844 285.410156 133.089844 C 270.339844 133.089844 256.105469 140.683594 245.328125 154.46875 C 231.394531 172.277344 223.480469 191.867188 221.75 211.980469 C 216.070312 209.941406 210.21875 208.851562 204.363281 208.851562 C 184.152344 208.851562 166.339844 220.980469 156.722656 241.28125 C 151.046875 253.226562 147.992188 266.699219 147.378906 282.46875 L 147.34375 283.390625 L 147.371094 284.316406 C 147.972656 305.507812 152.339844 322.285156 161.097656 337.085938 C 168.71875 350 179.648438 359.90625 191.980469 365.6875 C 189.695312 370.058594 187.871094 374.789062 186.664062 379.957031 C 180.15625 408.003906 191.394531 431.039062 200.410156 445.914062 C 216.652344 472.75 238.21875 485.796875 266.339844 485.796875 C 273.664062 485.796875 281.316406 484.90625 289.730469 483.078125 C 319.140625 476.691406 344.1875 476.691406 369.457031 483.03125 C 377.917969 485.160156 385.75 486.191406 393.40625 486.191406 C 407.726562 486.191406 420.738281 482.480469 432.074219 475.175781 C 462.027344 455.878906 470.625 427.3125 474.769531 404.5625 C 477.199219 391.191406 475.414062 378.765625 469.972656 368.066406 C 478.367188 364.242188 486.03125 358.378906 492.5 350.65625 C 507.214844 333.070312 515.210938 311.601562 516.949219 285.011719 L 517.027344 283.789062 Z M 459.269531 266.929688 C 460.96875 271.105469 461.867188 276.15625 462.105469 282.660156 C 461.015625 296.789062 457.285156 307.230469 450.425781 315.429688 C 448.601562 317.613281 447 318.386719 446.1875 318.386719 C 444.992188 318.386719 442.929688 316.847656 441.222656 313.46875 C 438.304688 307.699219 438.617188 299.207031 442.078125 290.167969 C 446.121094 279.59375 453.210938 271.167969 459.269531 266.929688 Z M 385.65625 191.433594 C 391.78125 200.0625 394.6875 209.53125 394.964844 221.542969 C 394.082031 234.777344 390.097656 239.746094 386.289062 242.847656 C 384.320312 244.453125 382.359375 245.304688 380.613281 245.304688 C 376.703125 245.304688 375.3125 240.90625 374.898438 239.003906 C 371.242188 222.378906 374.664062 207.148438 385.65625 191.433594 Z M 285.949219 191.792969 C 293.257812 201.769531 297.894531 216.617188 297.925781 230.429688 C 297.921875 231.199219 297.738281 238.089844 292.867188 243.460938 C 291.59375 244.871094 290.203125 245.527344 288.488281 245.527344 C 285.625 245.527344 281.84375 243.683594 279.832031 238.492188 C 273.414062 221.953125 275.339844 207.011719 285.949219 191.792969 Z M 205.992188 265.476562 C 225.535156 279.882812 226.992188 294.582031 226.007812 305.886719 C 225.539062 311.304688 222.015625 315.351562 216.753906 316.53125 C 215.441406 316.324219 211.382812 314.332031 208.335938 309.167969 C 204.542969 302.761719 202.65625 294.875 202.253906 283.695312 C 202.613281 276.265625 203.835938 270.296875 205.992188 265.476562 Z M 420.78125 394.738281 C 417.402344 413.269531 412.410156 422.570312 402.347656 429.050781 C 400.839844 430.023438 398.269531 431.316406 393.40625 431.316406 C 390.359375 431.316406 386.796875 430.8125 382.820312 429.8125 C 366.007812 425.589844 348.636719 423.449219 331.183594 423.449219 C 314.054688 423.449219 296.6875 425.414062 278.082031 429.453125 C 273.597656 430.425781 269.648438 430.917969 266.335938 430.917969 C 259.976562 430.917969 254.890625 429.953125 247.34375 417.484375 C 239.023438 403.753906 239.019531 397.074219 240.105469 392.390625 C 240.191406 392.019531 240.277344 391.75 240.34375 391.554688 C 266.03125 379.382812 285.652344 360.355469 300.308594 333.394531 C 304.507812 325.679688 310.953125 318.535156 329.519531 318.535156 C 330.167969 318.535156 330.820312 318.546875 331.484375 318.566406 L 332.261719 318.585938 L 333.039062 318.5625 C 333.382812 318.554688 333.730469 318.546875 334.070312 318.546875 C 342.058594 318.546875 346.960938 321.171875 351.011719 327.617188 C 356.738281 336.71875 364.570312 348.621094 374.4375 359.988281 C 385.433594 372.664062 399.496094 382.753906 416.230469 389.976562 C 419.289062 391.296875 420.558594 392.421875 420.953125 392.824219 C 420.96875 393.121094 420.964844 393.738281 420.78125 394.738281 Z M 420.78125 394.738281 "/></g><path style=" stroke:none;fill-rule:evenodd;fill:#ffbac2;fill-opacity:1;" d="M 332.210938 291.136719 C 350.390625 290.589844 364.832031 298.03125 374.242188 313.011719 C 380.546875 323.042969 387.21875 332.851562 395.164062 342.003906 C 403.738281 351.886719 414.480469 359.335938 427.101562 364.78125 C 443.851562 372.007812 450.589844 384.171875 447.777344 399.660156 C 444.101562 419.808594 437.476562 439.0625 417.21875 452.113281 C 404.394531 460.378906 389.644531 459.816406 376.140625 456.425781 C 345.140625 448.644531 315.023438 449.515625 283.914062 456.265625 C 254.953125 462.5625 237.828125 454.75 223.882812 431.707031 C 215.324219 417.582031 209.558594 402.675781 213.390625 386.15625 C 215.351562 377.769531 219.890625 370.871094 228.503906 366.808594 C 250.851562 356.242188 265.519531 339.945312 276.214844 320.28125 C 287.050781 300.359375 305.253906 290.421875 332.210938 291.136719 Z M 332.210938 291.136719 "/><path style=" stroke:none;fill-rule:evenodd;fill:#ffbac2;fill-opacity:1;" d="M 422.414062 222.136719 C 421.605469 236.941406 417.601562 252.710938 403.632812 264.105469 C 382.449219 281.390625 353.953125 271.570312 348.101562 244.894531 C 341.949219 216.890625 350.105469 192.125 367.207031 170.261719 C 377.855469 156.632812 393.394531 157.429688 404.488281 170.917969 C 416.109375 185.109375 422.171875 201.417969 422.414062 222.136719 Z M 422.414062 222.136719 "/><path style=" stroke:none;fill-rule:evenodd;fill:#ffbac2;fill-opacity:1;" d="M 325.363281 230.601562 C 325.3125 238.964844 322.574219 251.542969 313.226562 261.859375 C 295.78125 281.164062 264.339844 274.4375 254.253906 248.421875 C 243.46875 220.621094 248.867188 194.476562 266.941406 171.375 C 278.5 156.585938 292.648438 157.199219 304.855469 171.496094 C 316.839844 185.539062 325.3125 207.859375 325.363281 230.601562 Z M 325.363281 230.601562 "/><path style=" stroke:none;fill-rule:evenodd;fill:#ffbac2;fill-opacity:1;" d="M 174.796875 283.535156 C 175.183594 273.582031 176.816406 262.929688 181.507812 253.046875 C 189.316406 236.570312 204.886719 231.242188 219.714844 241.558594 C 242.621094 257.464844 255.863281 279.257812 253.34375 308.25 C 251.789062 326.203125 238.917969 340.097656 221.832031 343.5 C 208.597656 346.15625 193.324219 337.699219 184.726562 323.140625 C 177.648438 311.179688 175.210938 298.09375 174.796875 283.535156 Z M 174.796875 283.535156 "/><path style=" stroke:none;fill-rule:evenodd;fill:#ffbac2;fill-opacity:1;" d="M 489.570312 283.222656 C 488.382812 301.378906 483.554688 318.589844 471.457031 333.050781 C 454.832031 352.890625 428.414062 348.949219 416.734375 325.84375 C 400.683594 294.085938 426.507812 249.5625 453.492188 239.042969 C 466.140625 234.109375 473.507812 236.941406 480.703125 248.691406 C 487.132812 259.183594 489.277344 270.792969 489.570312 283.222656 Z M 489.570312 283.222656 "/></g></svg>